#!OML:ASF H:\MichaelJackson\Top Level 1\Subject 1\Session 1\male.ASF
:FULLY-SPECIFIED
:DEGREES
238
root 5.54465 15.627 -25.8274 9.77159 23.7564 -8.17507
lowerback 1.09275 -2.33661 3.35454
upperback -1.37041 -2.9665 3.88292
thorax -1.98651 -1.4962 2.19699
lowerneck -10.3247 -1.87671 -0.153311
upperneck 1.36835 -2.45545 -0.416816
head 2.2056 -1.2356 -0.229611
rclavicle -5.06e-014 5.11871e-015
rhumerus -34.5413 -25.7473 -69.6071
rradius 101.231
rwrist -61.0472
rhand -10.0416 -21.0455
rfingers 7.12502
rthumb 15.9436 -770.409
lclavicle -5.06e-014 5.11871e-015
lhumerus -55.1058 -32.5451 122.347
lradius 63.093
lwrist 20.1092
lhand 5.50058 13.7156
lfingers 7.12502
lthumb 30.8473 41.1461
rfemur -16.4889 -12.5367 5.39203
rtibia 32.8969
rfoot -39.2685 -8.66842
rtoes 56.5628
lfemur -43.2989 35.856 -7.23227
ltibia 54.5084
lfoot -13.739 9.83323
ltoes -5.43832
239
root 5.65072 15.6591 -25.8088 9.48089 25.5105 -8.1511
lowerback 1.02484 -2.4563 3.27099
upperback -1.44752 -3.12374 4.03554
thorax -2.013 -1.57213 2.40466
lowerneck -10.1156 -2.13247 -0.153872
upperneck 1.56112 -2.79665 -0.415299
head 2.23092 -1.40564 -0.245059
rclavicle 6.46299e-014 2.39536e-014
rhumerus -34.8345 -27.2777 -68.8819
rradius 98.4128
rwrist -61.62
rhand -18.9446 -20.7622
rfingers 7.12502
rthumb 7.35864 -770.614
lclavicle 6.46299e-014 2.39536e-014
lhumerus -55.4307 -31.9108 122.567
lradius 63.2928
lwrist 19.6704
lhand 4.50578 12.9986
lfingers 7.12502
lthumb 29.8985 40.6042
rfemur -14.8992 -10.2826 5.15916
rtibia 32.1184
rfoot -40.7955 -11.5138
rtoes 56.3217
lfemur -43.2429 35.3468 -8.07462
ltibia 53.9091
lfoot -14.513 9.37744
ltoes -2.10601
240
root 5.76148 15.6931 -25.7905 9.20983 27.3166 -8.01774
lowerback 0.941798 -2.5768 3.13123
upperback -1.50815 -3.28663 4.11229
thorax -2.01367 -1.65056 2.56393
lowerneck -9.92619 -2.42938 -0.113434
upperneck 1.74722 -3.19994 -0.365583
head 2.25752 -1.60465 -0.25522
rclavicle -8.6695e-014 4.63168e-014
rhumerus -35.2202 -27.8661 -68.1082
rradius 95.139
rwrist -59.929
rhand -26.7032 -21.4736
rfingers 7.12502
rthumb -0.133395 -771.453
lclavicle -8.6695e-014 4.63168e-014
lhumerus -55.7496 -31.4903 122.756
lradius 63.4212
lwrist 19.0767
lhand 3.73556 12.3246
lfingers 7.12502
lthumb 29.1632 40.0602
rfemur -13.3826 -7.91462 4.91211
rtibia 31.5454
rfoot -42.3136 -14.3319
rtoes 56.1537
lfemur -42.9882 34.6305 -8.83285
ltibia 53.2128
lfoot -15.3416 8.59691
ltoes 1.5578
241
root 5.87628 15.7285 -25.7728 8.97641 29.1737 -7.78792
lowerback 0.840458 -2.69122 2.95724
upperback -1.55249 -3.44547 4.11819
thorax -1.98829 -1.72702 2.66704
lowerneck -9.7633 -2.77217 -0.0461811
upperneck 1.91274 -3.66959 -0.27351
head 2.28226 -1.83494 -0.259691
rclavicle -1.66731e-014 1.59028e-015
rhumerus -35.6945 -27.531 -67.3613
rradius 91.3616
rwrist -55.5824
rhand -32.3938 -23.941
rfingers 7.12502
rthumb -5.62894 -773.846
lclavicle -1.66731e-014 1.59028e-015
lhumerus -56.0326 -31.2912 122.904
lradius 63.4793
lwrist 18.4083
lhand 3.2199 11.7729
lfingers 7.12502
lthumb 28.6707 39.5928
rfemur -12.001 -5.54814 4.67659
rtibia 31.2499
rfoot -43.6965 -17.0466
rtoes 56.0605
lfemur -42.6148 33.7298 -9.54369
ltibia 52.461
lfoot -16.1335 7.56346
ltoes 5.61544
242
root 5.99434 15.7655 -25.7565 8.7941 31.0694 -7.4778
lowerback 0.72128 -2.79388 2.7699
upperback -1.57944 -3.59182 4.06327
thorax -1.93733 -1.7976 2.71237
lowerneck -9.63785 -3.15943 0.0275769
upperneck 2.04819 -4.20084 -0.147367
head 2.30437 -2.09456 -0.257524
rclavicle -8.03587e-014 2.88238e-014
rhumerus -36.252 -26.3639 -66.7065
rradius 87.0107
rwrist -48.1401
rhand -35.1006 -28.4207
rfingers 7.12502
rthumb -8.24188 -778.24
lclavicle -8.03587e-014 2.88238e-014
lhumerus -56.2418 -31.2989 122.995
lradius 63.4699
lwrist 17.7565
lhand 2.97378 11.4081
lfingers 7.12502
lthumb 28.4355 39.2676
rfemur -10.8194 -3.31064 4.46616
rtibia 31.307
rfoot -44.756 -19.6009
rtoes 56.0283
lfemur -42.1871 32.6773 -10.2396
ltibia 51.6831
lfoot -16.8157 6.38085
ltoes 10.0912
243
root 6.11463 15.8042 -25.7421 8.6708 32.9802 -7.1025
lowerback 0.588524 -2.87985 2.58195
upperback -1.5863 -3.71812 3.96222
thorax -1.86092 -1.85864 2.70796
lowerneck -9.56054 -3.58444 0.0816116
upperneck 2.14816 -4.78118 0.0038659
head 2.32481 -2.37782 -0.246784
rclavicle 1.0461e-014 -5.96354e-015
rhumerus -36.9016 -24.5766 -66.1448
rradius 82.0446
rwrist -37.374
rhand -34.1763 -33.6137
rfingers 7.12502
rthumb -7.34973 -783.466
lclavicle 1.0461e-014 -5.96354e-015
lhumerus -56.3364 -31.4805 123.01
lradius 63.3965
lwrist 17.2087
lhand 2.98637 11.2617
lfingers 7.12502
lthumb 28.4475 39.1191
rfemur -9.8996 -1.31773 4.27798
rtibia 31.7881
rfoot -45.2598 -21.9724
rtoes 56.0306
lfemur -41.744 31.517 -10.9438
ltibia 50.8955
lfoot -17.351 5.15004
ltoes 14.9049
244
root 6.23593 15.8446 -25.73 8.60834 34.8742 -6.67359
lowerback 0.450679 -2.94536 2.39738
upperback -1.56925 -3.81842 3.83076
thorax -1.75974 -1.90713 2.66814
lowerneck -9.53908 -4.03596 0.09057
upperneck 2.21252 -5.39223 0.170693
head 2.34595 -2.67614 -0.22576
rclavicle 1.14848e-013 -3.49861e-014
rhumerus -37.661 -22.4986 -65.594
rradius 76.5969
rwrist -23.8857
rhand -29.9158 -36.9036
rfingers 7.12502
rthumb -3.23617 -786.859
lclavicle 1.14848e-013 -3.49861e-014
lhumerus -56.2792 -31.7892 122.932
lradius 63.2653
lwrist 16.8373
lhand 3.22286 11.3387
lfingers 7.12502
lthumb 28.6735 39.1581
rfemur -9.2941 0.352219 4.09558
rtibia 32.754
rfoot -44.9525 -24.1844
rtoes 56.02
lfemur -41.2979 30.2985 -11.6665
ltibia 50.1051
lfoot -17.7368 3.94928
ltoes 19.874
245
root 6.35676 15.8865 -25.7206 8.60267 36.716 -6.19817
lowerback 0.320844 -2.98736 2.20912
upperback -1.52558 -3.88769 3.68542
thorax -1.63718 -1.94035 2.61468
lowerneck -9.5718 -4.50087 0.0335439
upperneck 2.24554 -6.01338 0.341489
head 2.36992 -2.97987 -0.194062
rclavicle 2.18663e-014 -5.12864e-014
rhumerus -38.5083 -20.4226 -64.9815
rradius 71.0656
rwrist -9.44558
rhand -24.0441 -36.4257
rfingers 7.12502
rthumb 2.43477 -786.392
lclavicle 2.18663e-014 -5.12864e-014
lhumerus -56.0461 -32.1693 122.749
lradius 63.084
lwrist 16.6862
lhand 3.62237 11.5935
lfingers 7.12502
lthumb 29.0551 39.3478
rfemur -9.03821 1.67242 3.89665
rtibia 34.2459
rfoot -43.5729 -26.3072
rtoes 55.9146
lfemur -40.8391 29.0713 -12.4051
ltibia 49.3136
lfoot -17.9952 2.80455
ltoes 24.8015
246
root 6.47551 15.9294 -25.7139 8.64504 38.4728 -5.6786
lowerback 0.215834 -3.00283 1.99918
upperback -1.45466 -3.92103 3.54132
thorax -1.50001 -1.95558 2.5743
lowerneck -9.64758 -4.96723 -0.0994809
upperneck 2.2549 -6.62668 0.502215
head 2.39785 -3.28064 -0.153856
rclavicle -6.12257e-014 -2.68359e-014
rhumerus -39.3553 -18.4354 -64.3702
rradius 65.869
rwrist 3.94208
rhand -18.9191 -32.2217
rfingers 7.12502
rthumb 7.38327 -782.073
lclavicle -6.12257e-014 -2.68359e-014
lhumerus -55.6347 -32.5668 122.464
lradius 62.8637
lwrist 16.7664
lhand 4.11473 11.9616
lfingers 7.12502
lthumb 29.5252 39.6338
rfemur -9.14383 2.66469 3.66098
rtibia 36.2773
rfoot -40.8435 -28.4471
rtoes 55.5667
lfemur -40.3441 27.8728 -13.1456
ltibia 48.5235
lfoot -18.1543 1.70549
ltoes 29.5157
247
root 6.59063 15.9722 -25.7097 8.72696 40.118 -5.11646
lowerback 0.150908 -2.98856 1.74685
upperback -1.36008 -3.91343 3.4104
thorax -1.35852 -1.95012 2.57208
lowerneck -9.74782 -5.42595 -0.305799
upperneck 2.25084 -7.21933 0.63812
head 2.42966 -3.57257 -0.109631
rclavicle -2.1916e-014 1.70955e-014
rhumerus -40.11 -16.4955 -63.894
rradius 61.1616
rwrist 15.2661
rhand -16.1047 -25.5871
rfingers 7.12502
rthumb 10.0992 -775.325
lclavicle -2.1916e-014 1.70955e-014
lhumerus -55.0668 -32.936 122.088
lradius 62.6188
lwrist 17.057
lhand 4.63075 12.3582
lfingers 7.12502
lthumb 30.0177 39.9423
rfemur -9.60454 3.3841 3.37821
rtibia 38.8307
rfoot -36.4117 -30.7074
rtoes 54.6963
lfemur -39.7934 26.7355 -13.8716
ltibia 47.7404
lfoot -18.2358 0.600623
ltoes 33.9304
248
root 6.70063 16.0141 -25.7075 8.83358 41.6419 -4.51192
lowerback 0.1494 -2.94466 1.43223
upperback -1.24822 -3.86423 3.29932
thorax -1.23087 -1.92354 2.6278
lowerneck -9.84804 -5.8709 -0.57182
upperneck 2.24426 -7.7841 0.737887
head 2.46374 -3.85236 -0.0664842
rclavicle -6.77856e-014 -1.82882e-014
rhumerus -40.7305 -14.5867 -63.6341
rradius 56.8926
rwrist 24.474
rhand -15.7727 -18.2135
rfingers 7.12502
rthumb 10.4194 -767.935
lclavicle -6.77856e-014 -1.82882e-014
lhumerus -54.3865 -33.2454 121.647
lradius 62.3646
lwrist 17.5115
lhand 5.11919 12.6995
lfingers 7.12502
lthumb 30.4836 40.1981
rfemur -10.3852 3.89396 3.05027
rtibia 41.8579
rfoot -29.7448 -33.0648
rtoes 52.7418
lfemur -39.1673 25.6756 -14.5636
ltibia 46.9736
lfoot -18.2478 -0.583375
ltoes 38.0207
249
root 6.80442 16.054 -25.7065 8.95345 43.049 -3.86419
lowerback 0.231101 -2.87358 1.04218
upperback -1.12888 -3.77649 3.20844
thorax -1.13785 -1.87737 2.75082
lowerneck -9.92448 -6.29984 -0.873135
upperneck 2.24692 -8.32066 0.791641
head 2.4981 -4.12005 -0.0309865
rclavicle -2.20651e-014 6.36111e-014
rhumerus -41.2249 -12.7345 -63.6088
rradius 52.9805
rwrist 31.7997
rhand -17.0436 -11.5955
rfingers 7.12502
rthumb 9.1933 -761.375
lclavicle -2.20651e-014 6.36111e-014
lhumerus -53.6546 -33.4811 121.17
lradius 62.117
lwrist 18.0659
lhand 5.55722 12.9089
lfingers 7.12502
lthumb 30.9013 40.3292
rfemur -11.4381 4.24592 2.68731
rtibia 45.2859
rfoot -20.0958 -35.0242
rtoes 48.5268
lfemur -38.4572 24.6957 -15.2078
ltibia 46.2336
lfoot -18.1768 -1.9131
ltoes 41.79
250
root 6.90135 16.0914 -25.7059 9.07932 44.3594 -3.17096
lowerback 0.413373 -2.78267 0.577023
upperback -1.01208 -3.66065 3.13067
thorax -1.10052 -1.81677 2.93505
lowerneck -9.96191 -6.71133 -1.18411
upperneck 2.26934 -8.83067 0.799189
head 2.53192 -4.37635 -0.00703291
rclavicle 2.36057e-014 -1.03368e-014
rhumerus -41.6233 -10.9694 -63.8195
rradius 49.382
rwrist 37.3842
rhand -18.6515 -6.61362
rfingers 7.12502
rthumb 7.64149 -756.456
lclavicle 2.36057e-014 -1.03368e-014
lhumerus -52.9314 -33.6451 120.68
lradius 61.889
lwrist 18.6505
lhand 5.94989 12.9511
lfingers 7.12502
lthumb 31.2756 40.2996
rfemur -12.7079 4.46737 2.30445
rtibia 49.0248
rfoot -7.32198 -35.0038
rtoes 39.8177
lfemur -37.6644 23.7854 -15.799
ltibia 45.5283
lfoot -17.9881 -3.42082
ltoes 45.2349
251
root 6.99125 16.1258 -25.7047 9.20935 45.604 -2.42898
lowerback 0.707711 -2.6842 0.0520184
upperback -0.906872 -3.53465 3.05281
thorax -1.13647 -1.75048 3.15916
lowerneck -9.95213 -7.10396 -1.48291
upperneck 2.31826 -9.31607 0.77051
head 2.56491 -4.62174 0.00524513
rclavicle -6.01324e-014 8.34896e-015
rhumerus -41.9634 -9.31272 -64.2735
rradius 46.0874
rwrist 41.2378
rhand -19.5765 -3.4485
rfingers 7.12502
rthumb 6.74862 -753.321
lclavicle -6.01324e-014 8.34896e-015
lhumerus -52.2672 -33.7502 120.188
lradius 61.6902
lwrist 19.2008
lhand 6.32207 12.8218
lfingers 7.12502
lthumb 31.6302 40.1012
rfemur -14.1393 4.56265 1.91975
rtibia 52.9773
rfoot 5.7144 -30.8793
rtoes 24.6437
lfemur -36.798 22.9268 -16.3399
ltibia 44.8595
lfoot -17.638 -5.09231
ltoes 48.3216
252
root 7.07441 16.1575 -25.7021 9.35083 46.818 -1.63079
lowerback 1.11503 -2.59497 -0.504216
upperback -0.819784 -3.42329 2.95579
thorax -1.25483 -1.69049 3.38765
lowerneck -9.89112 -7.47454 -1.75607
upperneck 2.39462 -9.77588 0.726411
head 2.59657 -4.85497 0.010683
rclavicle -5.26779e-015 3.97569e-016
rhumerus -42.2806 -7.78615 -64.9811
rradius 43.1051
rwrist 43.3362
rhand -19.2122 -1.87951
rfingers 7.12502
rthumb 7.10036 -751.74
lclavicle -5.26779e-015 3.97569e-016
lhumerus -51.6941 -33.8121 119.685
lradius 61.5249
lwrist 19.6645
lhand 6.7101 12.5515
lfingers 7.12502
lthumb 31.9997 39.7575
rfemur -15.6832 4.51616 1.548
rtibia 57.0463
rfoot 14.3368 -23.1993
rtoes 7.30316
lfemur -35.8723 22.096 -16.8424
ltibia 44.2221
lfoot -17.0943 -6.85435
ltoes 51.0042
